<mxfile host="app.diagrams.net" modified="2022-12-13T16:25:28.062Z" agent="5.0 (Windows NT 10.0; Win64; x64) AppleWebKit/537.36 (KHTML, like Gecko) Chrome/107.0.0.0 Safari/537.36 OPR/93.0.0.0" version="20.6.2" etag="rWjGHuXDt7QxkWJWqfwp" type="github">
  <diagram id="bgVvX7nWBylyzyHtnpir" name="Sivu-1">
    <mxGraphModel dx="742" dy="438" grid="1" gridSize="10" guides="1" tooltips="1" connect="1" arrows="1" fold="1" page="1" pageScale="1" pageWidth="827" pageHeight="1169" math="0" shadow="0">
      <root>
        <mxCell id="0" />
        <mxCell id="1" parent="0" />
        <mxCell id="QQ0F9ixSipoDYbLYd50D-4" value="" style="edgeStyle=orthogonalEdgeStyle;rounded=0;orthogonalLoop=1;jettySize=auto;html=1;fontSize=18;" edge="1" parent="1" source="QQ0F9ixSipoDYbLYd50D-1" target="QQ0F9ixSipoDYbLYd50D-2">
          <mxGeometry relative="1" as="geometry" />
        </mxCell>
        <mxCell id="QQ0F9ixSipoDYbLYd50D-1" value="&lt;font style=&quot;font-size: 18px;&quot;&gt;Aloitus&lt;/font&gt;" style="ellipse;whiteSpace=wrap;html=1;" vertex="1" parent="1">
          <mxGeometry x="250" y="10" width="230" height="80" as="geometry" />
        </mxCell>
        <mxCell id="QQ0F9ixSipoDYbLYd50D-5" value="" style="edgeStyle=orthogonalEdgeStyle;rounded=0;orthogonalLoop=1;jettySize=auto;html=1;fontSize=18;" edge="1" parent="1" source="QQ0F9ixSipoDYbLYd50D-2" target="QQ0F9ixSipoDYbLYd50D-3">
          <mxGeometry relative="1" as="geometry" />
        </mxCell>
        <mxCell id="QQ0F9ixSipoDYbLYd50D-2" value="Lue 1. luku" style="shape=parallelogram;perimeter=parallelogramPerimeter;whiteSpace=wrap;html=1;fixedSize=1;fontSize=18;" vertex="1" parent="1">
          <mxGeometry x="280" y="120" width="170" height="60" as="geometry" />
        </mxCell>
        <mxCell id="QQ0F9ixSipoDYbLYd50D-7" value="" style="edgeStyle=orthogonalEdgeStyle;rounded=0;orthogonalLoop=1;jettySize=auto;html=1;fontSize=18;" edge="1" parent="1" source="QQ0F9ixSipoDYbLYd50D-3" target="QQ0F9ixSipoDYbLYd50D-6">
          <mxGeometry relative="1" as="geometry" />
        </mxCell>
        <mxCell id="QQ0F9ixSipoDYbLYd50D-3" value="Lue 2. luku" style="shape=parallelogram;perimeter=parallelogramPerimeter;whiteSpace=wrap;html=1;fixedSize=1;fontSize=18;" vertex="1" parent="1">
          <mxGeometry x="280" y="220" width="170" height="60" as="geometry" />
        </mxCell>
        <mxCell id="QQ0F9ixSipoDYbLYd50D-11" value="" style="edgeStyle=orthogonalEdgeStyle;rounded=0;orthogonalLoop=1;jettySize=auto;html=1;fontSize=18;" edge="1" parent="1" source="QQ0F9ixSipoDYbLYd50D-6" target="QQ0F9ixSipoDYbLYd50D-8">
          <mxGeometry relative="1" as="geometry" />
        </mxCell>
        <mxCell id="QQ0F9ixSipoDYbLYd50D-6" value="1. luku = 2. luku" style="rhombus;whiteSpace=wrap;html=1;fontSize=18;" vertex="1" parent="1">
          <mxGeometry x="280" y="310" width="170" height="120" as="geometry" />
        </mxCell>
        <mxCell id="QQ0F9ixSipoDYbLYd50D-8" value="Tulosta konsoliin &lt;br&gt;( console.log ) &quot;Samat&quot;" style="shape=parallelogram;perimeter=parallelogramPerimeter;whiteSpace=wrap;html=1;fixedSize=1;fontSize=18;" vertex="1" parent="1">
          <mxGeometry y="340" width="230" height="60" as="geometry" />
        </mxCell>
        <mxCell id="QQ0F9ixSipoDYbLYd50D-13" value="Loppu" style="ellipse;whiteSpace=wrap;html=1;fontSize=18;" vertex="1" parent="1">
          <mxGeometry x="305" y="490" width="120" height="80" as="geometry" />
        </mxCell>
        <mxCell id="QQ0F9ixSipoDYbLYd50D-14" value="" style="endArrow=classic;html=1;rounded=0;fontSize=18;" edge="1" parent="1">
          <mxGeometry width="50" height="50" relative="1" as="geometry">
            <mxPoint x="104" y="400" as="sourcePoint" />
            <mxPoint x="104" y="530" as="targetPoint" />
          </mxGeometry>
        </mxCell>
        <mxCell id="QQ0F9ixSipoDYbLYd50D-15" value="" style="endArrow=classic;html=1;rounded=0;fontSize=18;entryX=0;entryY=0.5;entryDx=0;entryDy=0;" edge="1" parent="1" target="QQ0F9ixSipoDYbLYd50D-13">
          <mxGeometry width="50" height="50" relative="1" as="geometry">
            <mxPoint x="100" y="530" as="sourcePoint" />
            <mxPoint x="114" y="550" as="targetPoint" />
          </mxGeometry>
        </mxCell>
        <mxCell id="QQ0F9ixSipoDYbLYd50D-12" value="Tulosta konsoliin&lt;br&gt;&amp;nbsp;&quot;Eri luvut&quot;" style="shape=parallelogram;perimeter=parallelogramPerimeter;whiteSpace=wrap;html=1;fixedSize=1;fontSize=18;" vertex="1" parent="1">
          <mxGeometry x="510" y="340" width="230" height="60" as="geometry" />
        </mxCell>
        <mxCell id="QQ0F9ixSipoDYbLYd50D-17" value="" style="edgeStyle=orthogonalEdgeStyle;rounded=0;orthogonalLoop=1;jettySize=auto;html=1;fontSize=18;endArrow=none;" edge="1" parent="1" source="QQ0F9ixSipoDYbLYd50D-6" target="QQ0F9ixSipoDYbLYd50D-12">
          <mxGeometry relative="1" as="geometry">
            <mxPoint x="450" y="370" as="sourcePoint" />
            <mxPoint x="560" y="370" as="targetPoint" />
          </mxGeometry>
        </mxCell>
        <mxCell id="QQ0F9ixSipoDYbLYd50D-19" value="" style="endArrow=classic;html=1;rounded=0;fontSize=18;exitX=0.568;exitY=1.056;exitDx=0;exitDy=0;exitPerimeter=0;" edge="1" parent="1" source="QQ0F9ixSipoDYbLYd50D-12">
          <mxGeometry width="50" height="50" relative="1" as="geometry">
            <mxPoint x="370" y="450" as="sourcePoint" />
            <mxPoint x="640" y="530" as="targetPoint" />
          </mxGeometry>
        </mxCell>
        <mxCell id="QQ0F9ixSipoDYbLYd50D-20" value="" style="endArrow=classic;html=1;rounded=0;fontSize=18;entryX=1;entryY=0.5;entryDx=0;entryDy=0;" edge="1" parent="1" target="QQ0F9ixSipoDYbLYd50D-13">
          <mxGeometry width="50" height="50" relative="1" as="geometry">
            <mxPoint x="640" y="530" as="sourcePoint" />
            <mxPoint x="420" y="400" as="targetPoint" />
          </mxGeometry>
        </mxCell>
      </root>
    </mxGraphModel>
  </diagram>
</mxfile>
